<svg width="303" height="100" viewBox="0 0 303 100" fill="none" xmlns="http://www.w3.org/2000/svg">
<path d="M94.2 53.3C93.4 53.3 92.4667 53.2 91.4 53C91.5333 51.3667 91.65 49.0333 91.75 46C91.8833 42.9667 91.95 40.2667 91.95 37.9C91.95 32.4 91.6667 29.0167 91.1 27.75C92.1333 27.35 93.4833 27.0333 95.15 26.8C96.85 26.5333 98.5667 26.4 100.3 26.4C103.633 26.4 106.2 27.1667 108 28.7C109.8 30.2 110.7 32.3667 110.7 35.2C110.7 36.9 110.25 38.4167 109.35 39.75C108.483 41.05 107.233 42.0833 105.6 42.85C108.167 47.8833 110.217 51.0167 111.75 52.25C110.85 52.65 109.917 52.9167 108.95 53.05C108.017 53.2167 106.967 53.3 105.8 53.3C105.1 51.5 103.533 48.3833 101.1 43.95C100.967 43.9833 100.667 44 100.2 44C99.5333 44 98.8 43.9667 98 43.9C97.2333 43.8333 96.6333 43.7333 96.2 43.6C96.2333 48.4 96.5 51.5333 97 53C96.1 53.2 95.1667 53.3 94.2 53.3ZM101.65 41.45C102.917 40.9167 103.95 40.1333 104.75 39.1C105.55 38.0667 105.95 36.9 105.95 35.6C105.95 31.6333 103.717 29.65 99.25 29.65C98.2833 29.65 97.3833 29.7667 96.55 30C96.3833 32.4333 96.2667 35.8333 96.2 40.2C98.5333 41.0333 100.35 41.45 101.65 41.45ZM116.546 53.15C116.78 49.6833 116.93 47.0667 116.996 45.3C117.063 43.5 117.096 41.0667 117.096 38C117.096 32.5 116.813 28.7167 116.246 26.65C118.013 26.8833 120.696 27 124.296 27C128.73 27 132.163 26.8833 134.596 26.65C134.596 27.55 134.496 28.5167 134.296 29.55C134.096 30.5833 133.846 31.3 133.546 31.7C132.746 31.2667 131.713 30.9333 130.446 30.7C129.18 30.4667 127.88 30.35 126.546 30.35C124.78 30.35 123.146 30.4833 121.646 30.75C121.513 33.55 121.43 36.05 121.396 38.25L122.646 38.3C123.913 38.3667 124.863 38.4 125.496 38.4C127.096 38.4 128.313 38.3667 129.146 38.3C130.013 38.2 130.963 38.05 131.996 37.85C132.13 38.5167 132.196 39.1333 132.196 39.7C132.196 40.1667 132.13 40.8 131.996 41.6C128.33 41.3667 125.463 41.25 123.396 41.25C122.43 41.25 121.746 41.2667 121.346 41.3C121.346 44.9333 121.413 47.4833 121.546 48.95C123.146 49.2833 124.896 49.45 126.796 49.45C128.263 49.45 129.73 49.3333 131.196 49.1C132.663 48.8667 133.863 48.5333 134.796 48.1C134.796 49 134.696 49.9833 134.496 51.05C134.296 52.0833 134.046 52.7833 133.746 53.15C131.613 52.9167 128.546 52.8 124.546 52.8C120.98 52.8 118.313 52.9167 116.546 53.15ZM159.226 53.25C158.359 53.25 157.409 53.1333 156.376 52.9L154.076 46.4C152.509 46.2667 150.559 46.2 148.226 46.2C145.759 46.2 144.076 46.2833 143.176 46.45C142.442 48.3833 141.676 50.5333 140.876 52.9C140.276 53.1 139.726 53.2 139.226 53.2C138.559 53.2 137.876 53.1 137.176 52.9C138.109 51.2333 139.759 47.3 142.126 41.1C144.492 34.9 146.259 30.05 147.426 26.55C148.326 26.3833 149.059 26.3 149.626 26.3C150.226 26.3 150.892 26.3833 151.626 26.55C152.792 30.05 154.559 34.9 156.926 41.1C159.292 47.3 160.942 51.2333 161.876 52.9C161.042 53.1333 160.159 53.25 159.226 53.25ZM150.126 43.45C151.492 43.45 152.442 43.4333 152.976 43.4C151.342 38.9333 149.892 35.2167 148.626 32.25C147.426 35.0167 146.009 38.7 144.376 43.3C146.076 43.4 147.992 43.45 150.126 43.45ZM173.921 53.3C172.488 53.3 171.004 53.2167 169.471 53.05C167.938 52.9167 166.621 52.7333 165.521 52.5C165.688 50.9 165.821 48.7167 165.921 45.95C166.021 43.15 166.071 40.5 166.071 38C166.071 32.4333 165.788 29.0167 165.221 27.75C166.288 27.35 167.704 27.0333 169.471 26.8C171.271 26.5333 173.088 26.4 174.921 26.4C179.354 26.4 182.754 27.55 185.121 29.85C187.488 32.15 188.671 35.4333 188.671 39.7C188.671 42.3667 188.054 44.7333 186.821 46.8C185.588 48.8333 183.854 50.4333 181.621 51.6C179.388 52.7333 176.821 53.3 173.921 53.3ZM176.271 50.75C177.671 50.55 178.954 49.95 180.121 48.95C181.288 47.9167 182.204 46.6667 182.871 45.2C183.571 43.7 183.921 42.1667 183.921 40.6C183.921 33.3 180.571 29.65 173.871 29.65C172.771 29.65 171.704 29.8 170.671 30.1C170.438 33.8333 170.321 37.6833 170.321 41.65C170.321 44.8833 170.404 47.5833 170.571 49.75C173.071 50.4167 174.971 50.75 176.271 50.75ZM203.833 53.6C202.1 53.6 200.35 53.4667 198.583 53.2C196.85 52.9667 195.417 52.65 194.283 52.25C194.417 50.7833 194.517 48.6167 194.583 45.75C194.683 42.8833 194.733 40.1 194.733 37.4C194.733 32.1333 194.45 28.9167 193.883 27.75C195.083 27.35 196.567 27.0333 198.333 26.8C200.133 26.5333 201.9 26.4 203.633 26.4C206.8 26.4 209.233 27.0167 210.933 28.25C212.633 29.45 213.483 31.1833 213.483 33.45C213.483 34.6833 213.117 35.8 212.383 36.8C211.65 37.8 210.617 38.6167 209.283 39.25C210.983 39.8167 212.317 40.6833 213.283 41.85C214.25 42.9833 214.733 44.3 214.733 45.8C214.733 48.3 213.783 50.2333 211.883 51.6C210.017 52.9333 207.333 53.6 203.833 53.6ZM199.033 38.9C200.267 38.5667 201.8 38.4 203.633 38.4C204.6 38.4 205.3 38.4333 205.733 38.5C207.733 37.1333 208.733 35.6333 208.733 34C208.733 31.1 206.85 29.65 203.083 29.65C201.717 29.65 200.467 29.8167 199.333 30.15C199.2 32.6167 199.1 35.5333 199.033 38.9ZM203.283 51.35C207.717 51.35 209.933 49.5 209.933 45.8C209.933 44.5667 209.583 43.4833 208.883 42.55C208.217 41.6167 207.233 40.9 205.933 40.4C204.4 40.4 202.083 40.8667 198.983 41.8C198.983 45.7667 199.083 48.7333 199.283 50.7C200.483 51.1333 201.817 51.35 203.283 51.35ZM239.06 53.25C238.193 53.25 237.243 53.1333 236.21 52.9L233.91 46.4C232.343 46.2667 230.393 46.2 228.06 46.2C225.593 46.2 223.91 46.2833 223.01 46.45C222.276 48.3833 221.51 50.5333 220.71 52.9C220.11 53.1 219.56 53.2 219.06 53.2C218.393 53.2 217.71 53.1 217.01 52.9C217.943 51.2333 219.593 47.3 221.96 41.1C224.326 34.9 226.093 30.05 227.26 26.55C228.16 26.3833 228.893 26.3 229.46 26.3C230.06 26.3 230.726 26.3833 231.46 26.55C232.626 30.05 234.393 34.9 236.76 41.1C239.126 47.3 240.776 51.2333 241.71 52.9C240.876 53.1333 239.993 53.25 239.06 53.25ZM229.96 43.45C231.326 43.45 232.276 43.4333 232.81 43.4C231.176 38.9333 229.726 35.2167 228.46 32.25C227.26 35.0167 225.843 38.7 224.21 43.3C225.91 43.4 227.826 43.45 229.96 43.45ZM248.155 53.3C247.355 53.3 246.422 53.2 245.355 53C245.488 51.3667 245.605 49.0333 245.705 46C245.838 42.9667 245.905 40.2667 245.905 37.9C245.905 32.4 245.622 29.0167 245.055 27.75C246.088 27.35 247.438 27.0333 249.105 26.8C250.805 26.5333 252.522 26.4 254.255 26.4C257.588 26.4 260.155 27.1667 261.955 28.7C263.755 30.2 264.655 32.3667 264.655 35.2C264.655 36.9 264.205 38.4167 263.305 39.75C262.438 41.05 261.188 42.0833 259.555 42.85C262.122 47.8833 264.172 51.0167 265.705 52.25C264.805 52.65 263.872 52.9167 262.905 53.05C261.972 53.2167 260.922 53.3 259.755 53.3C259.055 51.5 257.488 48.3833 255.055 43.95C254.922 43.9833 254.622 44 254.155 44C253.488 44 252.755 43.9667 251.955 43.9C251.188 43.8333 250.588 43.7333 250.155 43.6C250.188 48.4 250.455 51.5333 250.955 53C250.055 53.2 249.122 53.3 248.155 53.3ZM255.605 41.45C256.872 40.9167 257.905 40.1333 258.705 39.1C259.505 38.0667 259.905 36.9 259.905 35.6C259.905 31.6333 257.672 29.65 253.205 29.65C252.238 29.65 251.338 29.7667 250.505 30C250.338 32.4333 250.222 35.8333 250.155 40.2C252.488 41.0333 254.305 41.45 255.605 41.45ZM98.8 67.63C98.8 68.74 98.61 69.71 98.23 70.54C97.86 71.36 97.31 72 96.58 72.46C95.85 72.92 94.945 73.15 93.865 73.15C92.755 73.15 91.83 72.92 91.09 72.46C90.36 72 89.815 71.355 89.455 70.525C89.095 69.695 88.915 68.725 88.915 67.615C88.915 66.515 89.095 65.555 89.455 64.735C89.815 63.915 90.36 63.275 91.09 62.815C91.83 62.355 92.76 62.125 93.88 62.125C94.95 62.125 95.85 62.355 96.58 62.815C97.31 63.265 97.86 63.905 98.23 64.735C98.61 65.555 98.8 66.52 98.8 67.63ZM90.34 67.63C90.34 68.98 90.625 70.045 91.195 70.825C91.765 71.595 92.655 71.98 93.865 71.98C95.085 71.98 95.975 71.595 96.535 70.825C97.095 70.045 97.375 68.98 97.375 67.63C97.375 66.28 97.095 65.225 96.535 64.465C95.975 63.695 95.09 63.31 93.88 63.31C92.67 63.31 91.775 63.695 91.195 64.465C90.625 65.225 90.34 66.28 90.34 67.63ZM104.864 64.81C105.824 64.81 106.549 65.045 107.039 65.515C107.529 65.975 107.774 66.725 107.774 67.765V73H106.469V67.855C106.469 66.565 105.869 65.92 104.669 65.92C103.779 65.92 103.164 66.17 102.824 66.67C102.484 67.17 102.314 67.89 102.314 68.83V73H100.994V64.96H102.059L102.254 66.055H102.329C102.589 65.635 102.949 65.325 103.409 65.125C103.869 64.915 104.354 64.81 104.864 64.81ZM111.586 73H110.266V61.6H111.586V73ZM114.808 61.945C115.008 61.945 115.183 62.015 115.333 62.155C115.493 62.285 115.573 62.495 115.573 62.785C115.573 63.065 115.493 63.275 115.333 63.415C115.183 63.555 115.008 63.625 114.808 63.625C114.588 63.625 114.403 63.555 114.253 63.415C114.103 63.275 114.028 63.065 114.028 62.785C114.028 62.495 114.103 62.285 114.253 62.155C114.403 62.015 114.588 61.945 114.808 61.945ZM115.453 64.96V73H114.133V64.96H115.453ZM121.871 64.81C122.831 64.81 123.556 65.045 124.046 65.515C124.536 65.975 124.781 66.725 124.781 67.765V73H123.476V67.855C123.476 66.565 122.876 65.92 121.676 65.92C120.786 65.92 120.171 66.17 119.831 66.67C119.491 67.17 119.321 67.89 119.321 68.83V73H118.001V64.96H119.066L119.261 66.055H119.336C119.596 65.635 119.956 65.325 120.416 65.125C120.876 64.915 121.361 64.81 121.871 64.81ZM130.378 64.81C131.068 64.81 131.658 64.96 132.148 65.26C132.648 65.56 133.028 65.985 133.288 66.535C133.558 67.075 133.693 67.71 133.693 68.44V69.235H128.188C128.208 70.145 128.438 70.84 128.878 71.32C129.328 71.79 129.953 72.025 130.753 72.025C131.263 72.025 131.713 71.98 132.103 71.89C132.503 71.79 132.913 71.65 133.333 71.47V72.625C132.923 72.805 132.518 72.935 132.118 73.015C131.718 73.105 131.243 73.15 130.693 73.15C129.933 73.15 129.258 72.995 128.668 72.685C128.088 72.375 127.633 71.915 127.303 71.305C126.983 70.685 126.823 69.93 126.823 69.04C126.823 68.16 126.968 67.405 127.258 66.775C127.558 66.145 127.973 65.66 128.503 65.32C129.043 64.98 129.668 64.81 130.378 64.81ZM130.363 65.89C129.733 65.89 129.233 66.095 128.863 66.505C128.503 66.905 128.288 67.465 128.218 68.185H132.313C132.303 67.505 132.143 66.955 131.833 66.535C131.523 66.105 131.033 65.89 130.363 65.89ZM141.689 64.375C141.689 64.715 141.679 65.035 141.659 65.335C141.649 65.625 141.634 65.855 141.614 66.025H141.689C141.919 65.685 142.234 65.4 142.634 65.17C143.034 64.94 143.549 64.825 144.179 64.825C145.179 64.825 145.979 65.175 146.579 65.875C147.189 66.565 147.494 67.6 147.494 68.98C147.494 70.36 147.189 71.4 146.579 72.1C145.969 72.8 145.169 73.15 144.179 73.15C143.549 73.15 143.034 73.035 142.634 72.805C142.234 72.575 141.919 72.3 141.689 71.98H141.584L141.314 73H140.369V61.6H141.689V64.375ZM143.954 65.92C143.104 65.92 142.514 66.165 142.184 66.655C141.854 67.145 141.689 67.905 141.689 68.935V68.995C141.689 69.985 141.849 70.745 142.169 71.275C142.499 71.795 143.104 72.055 143.984 72.055C144.704 72.055 145.239 71.79 145.589 71.26C145.949 70.73 146.129 69.965 146.129 68.965C146.129 66.935 145.404 65.92 143.954 65.92ZM156.587 68.965C156.587 70.295 156.247 71.325 155.567 72.055C154.897 72.785 153.987 73.15 152.837 73.15C152.127 73.15 151.492 72.99 150.932 72.67C150.382 72.34 149.947 71.865 149.627 71.245C149.307 70.615 149.147 69.855 149.147 68.965C149.147 67.635 149.482 66.61 150.152 65.89C150.822 65.17 151.732 64.81 152.882 64.81C153.612 64.81 154.252 64.975 154.802 65.305C155.362 65.625 155.797 66.095 156.107 66.715C156.427 67.325 156.587 68.075 156.587 68.965ZM150.512 68.965C150.512 69.915 150.697 70.67 151.067 71.23C151.447 71.78 152.047 72.055 152.867 72.055C153.677 72.055 154.272 71.78 154.652 71.23C155.032 70.67 155.222 69.915 155.222 68.965C155.222 68.015 155.032 67.27 154.652 66.73C154.272 66.19 153.672 65.92 152.852 65.92C152.032 65.92 151.437 66.19 151.067 66.73C150.697 67.27 150.512 68.015 150.512 68.965ZM165.669 68.965C165.669 70.295 165.329 71.325 164.649 72.055C163.979 72.785 163.069 73.15 161.919 73.15C161.209 73.15 160.574 72.99 160.014 72.67C159.464 72.34 159.029 71.865 158.709 71.245C158.389 70.615 158.229 69.855 158.229 68.965C158.229 67.635 158.564 66.61 159.234 65.89C159.904 65.17 160.814 64.81 161.964 64.81C162.694 64.81 163.334 64.975 163.884 65.305C164.444 65.625 164.879 66.095 165.189 66.715C165.509 67.325 165.669 68.075 165.669 68.965ZM159.594 68.965C159.594 69.915 159.779 70.67 160.149 71.23C160.529 71.78 161.129 72.055 161.949 72.055C162.759 72.055 163.354 71.78 163.734 71.23C164.114 70.67 164.304 69.915 164.304 68.965C164.304 68.015 164.114 67.27 163.734 66.73C163.354 66.19 162.754 65.92 161.934 65.92C161.114 65.92 160.519 66.19 160.149 66.73C159.779 67.27 159.594 68.015 159.594 68.965ZM169.066 67.555C169.066 67.715 169.056 67.925 169.036 68.185C169.026 68.445 169.016 68.67 169.006 68.86H169.066C169.126 68.78 169.216 68.665 169.336 68.515C169.456 68.365 169.576 68.215 169.696 68.065C169.826 67.905 169.936 67.775 170.026 67.675L172.591 64.96H174.136L170.881 68.395L174.361 73H172.771L169.981 69.25L169.066 70.045V73H167.761V61.6H169.066V67.555ZM181.009 70.78C181.009 71.56 180.719 72.15 180.139 72.55C179.559 72.95 178.779 73.15 177.799 73.15C177.239 73.15 176.754 73.105 176.344 73.015C175.944 72.925 175.589 72.8 175.279 72.64V71.44C175.599 71.6 175.984 71.75 176.434 71.89C176.894 72.02 177.359 72.085 177.829 72.085C178.499 72.085 178.984 71.98 179.284 71.77C179.584 71.55 179.734 71.26 179.734 70.9C179.734 70.7 179.679 70.52 179.569 70.36C179.459 70.2 179.259 70.04 178.969 69.88C178.689 69.72 178.284 69.54 177.754 69.34C177.234 69.14 176.789 68.94 176.419 68.74C176.049 68.54 175.764 68.3 175.564 68.02C175.364 67.74 175.264 67.38 175.264 66.94C175.264 66.26 175.539 65.735 176.089 65.365C176.649 64.995 177.379 64.81 178.279 64.81C178.769 64.81 179.224 64.86 179.644 64.96C180.074 65.05 180.474 65.18 180.844 65.35L180.394 66.4C180.054 66.26 179.699 66.14 179.329 66.04C178.959 65.94 178.579 65.89 178.189 65.89C177.649 65.89 177.234 65.98 176.944 66.16C176.664 66.33 176.524 66.565 176.524 66.865C176.524 67.085 176.589 67.275 176.719 67.435C176.849 67.585 177.064 67.735 177.364 67.885C177.674 68.025 178.084 68.195 178.594 68.395C179.104 68.585 179.539 68.78 179.899 68.98C180.259 69.18 180.534 69.425 180.724 69.715C180.914 69.995 181.009 70.35 181.009 70.78Z" fill="black"/>
<g clip-path="url(#clip0)">
<path d="M72.7196 37.6426C72.477 35.2107 72.4428 31.0221 74.1369 29.6156C74.1672 29.5898 74.1897 29.5526 74.2162 29.5206C75.6013 28.9299 76.5598 28.101 75.8074 26.9856L55.3761 18.7773L22.2932 24.9101C22.2932 24.9101 18.5048 25.6321 18.8432 33.4798C19.0269 37.751 20.0316 39.8487 20.9103 40.881L18.1955 41.9719C17.442 43.0873 18.4004 43.9165 19.7856 44.5062C19.8119 44.5392 19.8341 44.5762 19.8649 44.6019C21.5579 46.0096 21.5254 50.1978 21.2818 52.6301C15.1996 54.9329 17.3829 55.6833 17.3829 55.6833L18.7171 56.1137C17.7787 57.2445 16.8466 59.3887 17.0212 63.4553C17.3598 71.3016 20.4716 71.8431 20.4716 71.8431L42.1209 81.2254L74.7978 70.6722C74.7978 70.6722 76.9818 69.9206 70.898 67.6177C70.6535 65.1891 70.6194 61.0014 72.3164 59.5902C72.3476 59.5651 72.3703 59.5271 72.3955 59.4956C73.7808 58.905 74.7384 58.0767 73.9858 56.9613L72.5655 56.3895C73.5127 55.6279 74.9355 53.6374 75.1585 48.4671C75.3123 44.9107 74.6164 42.8278 73.811 41.6016L76.6184 40.6958C76.6185 40.6972 78.8025 39.9456 72.7196 37.6426ZM45.3873 37.5421L50.8823 36.0363L69.4525 30.9481L72.2192 30.1893C71.3351 32.3467 71.3722 35.2991 71.5185 37.1966C71.5505 37.6259 71.5874 38.0179 71.6232 38.3159L68.595 39.3198L45.1563 47.0943L45.3873 37.5421ZM21.7828 45.1781L24.5492 45.9368L42.3832 50.825L43.9412 51.2504L48.6135 52.5308L48.8439 62.0832L24.754 54.092L22.3791 53.3051C22.414 53.0067 22.4509 52.6151 22.4844 52.1846C22.6298 50.2885 22.6676 47.3354 21.7828 45.1781ZM20.7081 33.1021C20.6746 31.0147 20.9536 29.5051 21.5175 28.7377C21.8763 28.2478 22.2998 28.1459 22.5902 28.1459C22.7437 28.1459 22.8542 28.1743 22.8617 28.1743L37.1163 34.3706L44.2281 37.4621L43.9947 47.0811L24.0433 39.6231L22.9904 39.2298C22.9518 39.2153 22.8993 39.2052 22.8588 39.2029C22.7766 39.195 20.8041 38.9529 20.7081 33.1021ZM42.1724 77.0581L21.1687 69.2065C21.1298 69.1915 21.0779 69.1815 21.0374 69.1788C20.9538 69.1714 18.9803 68.9296 18.8849 63.0802C18.8509 60.9902 19.1313 59.482 19.6941 58.714C20.0538 58.224 20.4775 58.1221 20.7674 58.1221C20.9212 58.1221 21.0313 58.1496 21.0394 58.1496C21.0394 58.1496 21.0403 58.1496 21.0394 58.1496L42.4043 67.4388L42.1724 77.0581ZM69.6951 67.1721C69.7282 67.6029 69.7651 67.9942 69.8009 68.2926L43.3335 77.0717L43.5648 67.5193L49.2233 65.9681L50.059 66.2377L53.1912 64.8804L67.6291 60.9245L70.3969 60.1653C69.5119 62.3224 69.5486 65.276 69.6951 67.1721ZM71.153 54.1901C71.1049 54.1916 71.0567 54.2002 71.0114 54.2193L69.0152 54.9644L50.0082 62.0705L49.7757 52.4516L56.0117 49.7396L71.1115 43.1737C71.1135 43.1726 71.9058 42.9379 72.4874 43.7265C73.0504 44.4938 73.3297 46.0034 73.2968 48.0908C73.1983 53.9397 71.2248 54.1827 71.153 54.1901Z" fill="black"/>
</g>
<defs>
<clipPath id="clip0">
<rect width="60" height="80" fill="white" transform="translate(17 10)"/>
</clipPath>
</defs>
</svg>
